<?xml version="1.0" encoding="UTF-8" standalone="no"?>
<svg
   viewBox="0 0 128 128"
   version="1.1"
   id="svg1"
   sodipodi:docname="os_fedora.svg"
   inkscape:version="1.4.2 (unknown)"
   xmlns:inkscape="http://www.inkscape.org/namespaces/inkscape"
   xmlns:sodipodi="http://sodipodi.sourceforge.net/DTD/sodipodi-0.dtd"
   xmlns="http://www.w3.org/2000/svg"
   xmlns:svg="http://www.w3.org/2000/svg">
  <defs
     id="defs1" />
  <sodipodi:namedview
     id="namedview1"
     pagecolor="#ffffff"
     bordercolor="#000000"
     borderopacity="0.25"
     inkscape:showpageshadow="2"
     inkscape:pageopacity="0.0"
     inkscape:pagecheckerboard="true"
     inkscape:deskcolor="#d1d1d1"
     inkscape:zoom="8.1796875"
     inkscape:cx="57.581662"
     inkscape:cy="64.061127"
     inkscape:window-width="1719"
     inkscape:window-height="1404"
     inkscape:window-x="0"
     inkscape:window-y="0"
     inkscape:window-maximized="0"
     inkscape:current-layer="svg1" />
  <circle
     style="fill:#ffffff;stroke-width:5.603"
     id="path2"
     cx="64"
     cy="64"
     r="40.649475" />
  <path
     d="M 64.033159,16 C 37.647396,16 16.271374,37.472069 16.22335,63.979037 h -0.0091 v 37.140853 h 0.0091 C 16.235546,107.13128 21.089021,112 27.079825,112 h 36.944187 c 26.3911,-0.0175 47.761788,-21.486553 47.761788,-47.982086 0,-26.50773 -21.38517,-47.9798 -47.809049,-47.9798 z m 9.709998,19.756926 c 8.024584,0 15.600181,6.16918 15.600181,14.682389 0,0.788966 0.0061,1.577932 -0.125015,2.47438 -0.221063,2.263989 -2.280759,3.892232 -4.526454,3.573596 -2.241882,-0.324734 -3.766454,-2.462183 -3.349484,-4.701779 0.03811,-0.256128 0.05031,-0.657853 0.05031,-1.346197 0,-4.826794 -3.930346,-6.687534 -7.64649,-6.687534 -3.716144,0 -7.06639,3.138331 -7.071726,6.687534 0.06251,4.106434 0,8.177041 0,12.283475 l 6.898687,-0.05336 c 5.387075,-0.110532 5.449582,8.032969 0.06251,7.994855 l -6.955859,0.05031 c -0.01753,3.305272 0.02439,2.706115 0.0091,4.370948 0,0 0.05641,4.037828 -0.06251,7.099168 -0.833941,8.994974 -8.4568,16.18333 -17.618714,16.18333 -9.716097,0 -17.717049,-7.971224 -17.717049,-17.746016 C 31.581837,70.568999 39.568306,62.657233 49.62362,62.74947 l 5.610424,-0.04193 v 7.980371 l -5.610424,0.05031 h -0.02668 c -5.526573,0.163892 -10.26418,3.933396 -10.353368,9.876939 a 9.7305796,9.7305796 0 0 0 9.761071,9.754972 c 5.401558,0 9.725244,-3.948641 9.725244,-9.742776 l -0.0091,-30.223874 c 0.003,-0.562567 0.02058,-1.009266 0.08385,-1.625193 0.910932,-7.394173 7.494033,-13.027466 14.947664,-13.027466 z m 0,0"
     fill="#51a2da"
     id="path1"
     style="stroke-width:0.762286" />
</svg>
