<?xml version="1.0" encoding="UTF-8" standalone="no"?>
<svg
   viewBox="0 34 128 128"
   version="1.1"
   id="svg2"
   sodipodi:docname="os_proxmox.svg"
   inkscape:version="1.4.2 (unknown)"
   xmlns:inkscape="http://www.inkscape.org/namespaces/inkscape"
   xmlns:sodipodi="http://sodipodi.sourceforge.net/DTD/sodipodi-0.dtd"
   xmlns="http://www.w3.org/2000/svg"
   xmlns:svg="http://www.w3.org/2000/svg">
  <defs
     id="defs2" />
  <sodipodi:namedview
     id="namedview2"
     pagecolor="#ffffff"
     bordercolor="#000000"
     borderopacity="0.25"
     inkscape:showpageshadow="2"
     inkscape:pageopacity="0.0"
     inkscape:pagecheckerboard="true"
     inkscape:deskcolor="#d1d1d1"
     inkscape:zoom="8.1796875"
     inkscape:cx="64"
     inkscape:cy="49.329513"
     inkscape:window-width="1719"
     inkscape:window-height="1404"
     inkscape:window-x="0"
     inkscape:window-y="0"
     inkscape:window-maximized="0"
     inkscape:current-layer="svg2" />
  <circle
     style="fill:#ffffff;stroke-width:5.603"
     id="path3"
     cx="64"
     cy="98"
     r="57" />
  <g
     transform="matrix(0.1875, 0, 0, 0.1875, 16.000002, 49.999992)"
     id="g2">
    <path
       d="M137.9 34.1c-10.5 0-19.7 1.9-28.5 5.7-8.6 3.8-16.2 8.9-22.9 15.6l170 186.4L426.1 55.3c-6.7-6.7-14.3-11.8-23.4-15.6-8.3-3.8-18-5.7-28-5.7-10.5 0-20.5 2.2-29.4 6.2-9.2 4-16.7 10-23.7 17l-65.2 72.2-66-72.2c-6.7-7-14.3-12.9-23.7-17-8.3-4-18.3-6.1-28.8-6.1M256.4 270l-170 186.7c6.7 6.5 14.3 11.8 22.9 15.6 8.9 3.8 18.1 5.7 28 5.7 11 0 20.5-2.4 29.4-6.2 9.4-4.3 17.5-10 24.2-17l65.5-72.2 65.4 72.2c6.7 7 14.3 12.7 23.4 17 8.9 3.8 18.6 6.2 29.4 6.2 10 0 19.7-1.9 28-5.7 9.2-3.8 16.7-9.2 23.4-15.6z"
       style="fill-rule:evenodd;clip-rule:evenodd"
       id="path1" />
    <path
       d="M56 90.1c-10.8.3-21.3 2.4-30.7 6.5-9.7 4-18 9.7-25.3 16.7L129.8 256 0 398.5c7.3 7.3 15.6 12.9 25.3 17.2 9.4 4.3 19.9 6.2 30.7 6.7 11.6-.5 22.4-2.4 32.3-7.3q15-6.9 25.8-18.6l128-140.5-127.9-140.3c-7.8-7.5-16.2-13.7-26.1-18.6-10-4.6-20.5-6.7-32.1-7m399.7 0c-11.6.3-21.8 2.4-31.8 7-10 4.8-18.6 11-26.1 18.6L270.4 256l127.4 140.6q11.25 11.7 26.1 18.6c10 4.8 20.2 6.7 31.8 7.3 11.6-.5 21.5-2.4 31-6.7 10.2-4.3 18-10 25.3-17.2L382.5 256 512 113.3c-7.3-7-15.1-12.7-25.3-16.7-9.4-4.1-19.4-6.2-31-6.5"
       style="fill-rule:evenodd;clip-rule:evenodd;fill:#e57000"
       id="path2" />
  </g>
</svg>
