<?xml version="1.0" encoding="utf-8"?>
<svg version="1.1" xmlns="http://www.w3.org/2000/svg" width="128px" height="128px" viewBox="0 0 128 128">
  <g transform="matrix(0.238999, 0, 0, 0.238999, 16.235386, 16.270956)">
    <path d="M 69.458 -0.341 C 70.757 -0.341 72.055 -0.341 73.394 -0.342 C 76.92 -0.343 80.446 -0.325 83.972 -0.304 C 87.67 -0.285 91.368 -0.284 95.066 -0.28 C 102.054 -0.271 109.041 -0.246 116.028 -0.216 C 123.989 -0.182 131.951 -0.166 139.912 -0.151 C 156.275 -0.12 172.637 -0.067 189 0 C 188.606 0.449 188.213 0.898 187.807 1.36 C 185.474 4.045 183.236 6.643 181.274 9.616 C 178.658 13.139 176.152 15.523 171.756 16.498 C 164.672 17.342 157.545 17.128 150.426 17.027 C 148.096 17.028 145.765 17.033 143.435 17.042 C 137.31 17.055 131.186 17.016 125.06 16.965 C 116.455 16.902 107.849 16.908 99.243 16.908 C 94.667 16.909 90.092 16.889 85.517 16.852 C 66.922 16.743 49.581 16.899 34.742 29.645 C 33 31 33 31 31 31 C 30.74 31.557 30.479 32.114 30.211 32.688 C 28.858 35.271 27.267 37.59 25.625 40 C 17.741 52.335 16.844 64.869 16.866 79.131 C 16.864 80.208 16.862 81.284 16.859 82.394 C 16.853 85.978 16.854 89.563 16.855 93.147 C 16.852 95.727 16.848 98.307 16.845 100.887 C 16.836 107.153 16.834 113.42 16.833 119.686 C 16.832 124.784 16.83 129.882 16.827 134.98 C 16.818 149.459 16.814 163.938 16.815 178.417 C 16.815 179.586 16.815 179.586 16.815 180.778 C 16.815 181.559 16.815 182.339 16.815 183.143 C 16.815 195.781 16.806 208.419 16.792 221.058 C 16.777 234.06 16.77 247.062 16.771 260.065 C 16.771 267.354 16.769 274.644 16.758 281.934 C 16.748 288.792 16.748 295.651 16.755 302.509 C 16.757 305.019 16.754 307.529 16.748 310.039 C 16.309 339.614 16.309 339.614 29.645 365.258 C 31 367 31 367 31 369 C 31.835 369.391 31.835 369.391 32.688 369.789 C 35.271 371.142 37.59 372.733 40 374.375 C 52.215 382.182 64.649 383.119 78.774 383.205 C 79.8 383.215 80.825 383.225 81.882 383.235 C 85.236 383.267 88.591 383.292 91.945 383.316 C 94.285 383.337 96.625 383.358 98.965 383.379 C 105.097 383.434 111.229 383.484 117.361 383.532 C 123.628 383.583 129.896 383.638 136.164 383.693 C 148.443 383.801 160.721 383.902 173 384 C 173 389.28 173 394.56 173 400 C 158.022 400.116 143.043 400.205 128.064 400.259 C 121.108 400.285 114.151 400.32 107.195 400.377 C 100.471 400.433 93.747 400.461 87.023 400.474 C 84.469 400.484 81.914 400.502 79.36 400.529 C 56.023 400.767 37.134 397.789 19.793 380.852 C 6.28 367.055 -0.49 351.165 -0.394 331.851 C -0.4 330.677 -0.407 329.503 -0.413 328.293 C -0.427 325.065 -0.427 321.837 -0.421 318.609 C -0.419 315.116 -0.433 311.622 -0.446 308.128 C -0.467 301.295 -0.471 294.462 -0.469 287.629 C -0.468 282.07 -0.472 276.51 -0.479 270.951 C -0.481 269.345 -0.484 267.74 -0.486 266.134 C -0.487 265.335 -0.488 264.536 -0.489 263.712 C -0.508 248.616 -0.507 233.52 -0.5 218.424 C -0.494 204.642 -0.515 190.861 -0.548 177.079 C -0.582 162.899 -0.597 148.719 -0.592 134.54 C -0.59 126.59 -0.595 118.641 -0.62 110.692 C -0.641 103.923 -0.645 97.154 -0.626 90.384 C -0.617 86.937 -0.616 83.491 -0.636 80.043 C -0.752 56.458 2.01 37.34 19.148 19.793 C 33.454 5.782 49.532 -0.519 69.458 -0.341 Z" fill="#00C1D5"/>
    <path d="M 148.039 111.612 C 148.807 111.607 149.575 111.602 150.367 111.596 C 152.919 111.582 155.471 111.589 158.023 111.596 C 159.862 111.59 161.701 111.583 163.54 111.575 C 168.519 111.557 173.498 111.558 178.477 111.564 C 182.64 111.567 186.802 111.561 190.965 111.555 C 200.787 111.541 210.609 111.543 220.431 111.554 C 230.553 111.565 240.674 111.551 250.795 111.525 C 259.497 111.502 268.199 111.496 276.9 111.502 C 282.092 111.505 287.284 111.503 292.476 111.485 C 297.359 111.47 302.242 111.474 307.125 111.493 C 308.913 111.496 310.7 111.493 312.488 111.483 C 329.706 111.39 329.706 111.39 337 116 C 338.305 116.743 338.305 116.743 339.637 117.5 C 346.504 122.523 350.805 129.297 352.562 137.684 C 353.063 141.48 353.125 145.204 353.098 149.023 C 353.096 150.143 353.096 150.143 353.093 151.285 C 353.088 153.648 353.075 156.012 353.063 158.375 C 353.057 159.986 353.053 161.596 353.049 163.207 C 353.039 167.138 353.019 171.069 353 175 C 347.39 175 341.78 175 336 175 C 335.944 171.549 335.944 171.549 335.887 168.027 C 335.84 165.78 335.789 163.533 335.738 161.285 C 335.704 159.733 335.676 158.18 335.654 156.627 C 335.62 154.385 335.567 152.144 335.512 149.902 C 335.502 148.874 335.502 148.874 335.492 147.824 C 335.342 142.811 334.266 139.39 332 135 C 327.241 130.589 324.19 129.851 317.89 129.853 C 316.779 129.847 316.779 129.847 315.646 129.842 C 313.151 129.831 310.656 129.827 308.161 129.823 C 306.377 129.817 304.594 129.81 302.81 129.803 C 297.955 129.786 293.099 129.775 288.244 129.767 C 285.211 129.762 282.179 129.756 279.147 129.749 C 269.663 129.73 260.179 129.716 250.695 129.708 C 239.741 129.698 228.787 129.672 217.833 129.631 C 209.371 129.601 200.909 129.586 192.447 129.583 C 187.391 129.581 182.335 129.572 177.279 129.547 C 172.522 129.523 167.765 129.519 163.007 129.529 C 161.262 129.53 159.516 129.523 157.771 129.51 C 155.386 129.492 153.002 129.499 150.617 129.512 C 149.928 129.501 149.239 129.49 148.529 129.479 C 143.58 129.545 140.763 130.833 137 134 C 133.747 137.992 133.57 141.691 133.612 146.66 C 133.607 147.424 133.602 148.187 133.596 148.974 C 133.582 151.529 133.589 154.084 133.596 156.638 C 133.59 158.472 133.583 160.305 133.575 162.138 C 133.557 167.116 133.558 172.093 133.564 177.07 C 133.567 181.225 133.561 185.38 133.555 189.536 C 133.541 199.338 133.543 209.14 133.554 218.943 C 133.565 229.055 133.551 239.168 133.525 249.281 C 133.502 257.964 133.496 266.647 133.502 275.33 C 133.505 280.515 133.503 285.701 133.485 290.887 C 133.47 295.763 133.474 300.639 133.493 305.516 C 133.496 307.305 133.493 309.094 133.483 310.883 C 133.47 313.327 133.481 315.769 133.499 318.213 C 133.489 318.92 133.48 319.626 133.47 320.354 C 133.544 325.339 134.903 328.147 138 332 C 141.921 335.129 145.106 335.407 150.051 335.512 C 150.71 335.53 151.368 335.548 152.047 335.566 C 154.136 335.62 156.224 335.654 158.313 335.688 C 159.735 335.721 161.158 335.755 162.58 335.791 C 166.053 335.878 169.526 335.938 173 336 C 173 341.61 173 347.22 173 353 C 168.768 353.069 164.537 353.129 160.305 353.165 C 158.869 353.18 157.434 353.2 155.999 353.226 C 143.221 353.454 133.778 352.698 124.203 343.484 C 118.233 336.752 115.851 330.277 115.853 321.373 C 115.849 320.588 115.845 319.804 115.842 318.996 C 115.831 316.359 115.827 313.722 115.823 311.085 C 115.817 309.198 115.81 307.311 115.803 305.424 C 115.782 299.217 115.772 293.011 115.762 286.805 C 115.758 284.668 115.754 282.531 115.749 280.395 C 115.73 270.355 115.716 260.315 115.708 250.276 C 115.698 238.69 115.672 227.104 115.631 215.517 C 115.601 206.561 115.586 197.605 115.583 188.648 C 115.581 183.3 115.572 177.951 115.547 172.603 C 115.523 167.568 115.519 162.533 115.529 157.499 C 115.53 155.654 115.523 153.81 115.51 151.966 C 115.42 139.266 116.317 130.291 125.281 120.719 C 131.932 114.068 138.703 111.532 148.039 111.612 Z" fill="#0091DA"/>
    <path d="M 83.539 45.866 C 84.265 45.864 84.992 45.862 85.74 45.859 C 88.157 45.853 90.575 45.854 92.992 45.855 C 94.732 45.852 96.472 45.848 98.212 45.845 C 102.927 45.836 107.642 45.833 112.357 45.833 C 115.305 45.832 118.254 45.83 121.202 45.827 C 131.496 45.818 141.79 45.814 152.083 45.815 C 161.667 45.815 171.25 45.805 180.833 45.789 C 189.072 45.776 197.311 45.771 205.55 45.771 C 210.466 45.771 215.382 45.769 220.298 45.758 C 224.922 45.748 229.546 45.748 234.171 45.755 C 235.863 45.757 237.556 45.754 239.249 45.748 C 252.734 45.703 264.174 46.27 274.824 55.598 C 282.686 63.974 283.57 73.595 283.25 84.625 C 283.232 85.82 283.214 87.015 283.195 88.246 C 283.149 91.165 283.083 94.082 283 97 C 280.354 97.027 277.708 97.047 275.063 97.063 C 274.308 97.071 273.553 97.079 272.775 97.088 C 270.85 97.097 268.925 97.052 267 97 C 265.344 95.344 265.852 93.358 265.824 91.082 C 265.8 90.075 265.777 89.067 265.752 88.029 C 265.709 85.904 265.678 83.779 265.658 81.654 C 265.496 75.721 265.353 71.453 261 67 C 255.929 64.4 252.196 63.622 246.417 63.606 C 245.32 63.596 245.32 63.596 244.2 63.587 C 241.767 63.571 239.334 63.575 236.901 63.58 C 235.149 63.573 233.397 63.564 231.646 63.554 C 226.9 63.532 222.154 63.529 217.408 63.531 C 213.442 63.531 209.476 63.523 205.51 63.514 C 196.151 63.495 186.793 63.492 177.434 63.499 C 167.788 63.506 158.143 63.483 148.497 63.446 C 140.206 63.415 131.916 63.404 123.625 63.408 C 118.677 63.41 113.73 63.404 108.782 63.38 C 104.129 63.357 99.476 63.359 94.823 63.38 C 93.118 63.383 91.414 63.378 89.71 63.364 C 78.403 63.05 78.403 63.05 68.34 67.635 C 63.546 72.52 63.875 77.915 63.866 84.394 C 63.864 85.129 63.862 85.865 63.859 86.622 C 63.853 89.08 63.854 91.538 63.855 93.996 C 63.852 95.76 63.848 97.525 63.845 99.289 C 63.836 104.078 63.833 108.867 63.833 113.657 C 63.832 117.655 63.828 121.654 63.825 125.652 C 63.816 135.086 63.814 144.519 63.815 153.952 C 63.815 163.683 63.805 173.414 63.789 183.145 C 63.776 191.501 63.771 199.857 63.771 208.213 C 63.771 213.203 63.769 218.193 63.758 223.183 C 63.748 227.876 63.748 232.568 63.755 237.261 C 63.757 238.982 63.754 240.703 63.748 242.424 C 63.74 244.776 63.745 247.127 63.753 249.479 C 63.752 251.452 63.752 251.452 63.751 253.465 C 64.172 259.437 65.811 263.691 70 268 C 73.779 269.872 76.985 270.29 81.176 270.414 C 82.911 270.472 82.911 270.472 84.682 270.531 C 85.88 270.562 87.078 270.593 88.313 270.625 C 90.139 270.683 90.139 270.683 92.002 270.742 C 95.001 270.836 98.001 270.919 101 271 C 101 276.61 101 282.22 101 288 C 97.083 288.082 93.168 288.141 89.25 288.188 C 88.158 288.213 87.066 288.238 85.941 288.264 C 74.645 288.364 64.428 287.015 56 279 C 47.978 270.795 45.845 261.598 45.86 250.405 C 45.857 249.66 45.854 248.916 45.851 248.149 C 45.842 245.664 45.84 243.179 45.839 240.695 C 45.834 238.909 45.829 237.123 45.824 235.337 C 45.811 230.491 45.804 225.646 45.8 220.801 C 45.797 217.77 45.793 214.74 45.788 211.71 C 45.775 202.219 45.765 192.728 45.761 183.238 C 45.757 172.299 45.739 161.361 45.71 150.423 C 45.688 141.957 45.678 133.49 45.677 125.024 C 45.676 119.973 45.67 114.922 45.652 109.87 C 45.636 105.116 45.634 100.361 45.642 95.606 C 45.643 93.867 45.639 92.129 45.629 90.39 C 45.561 77.722 45.634 65.588 55 56 C 63.98 47.986 71.487 45.882 83.539 45.866 Z" fill="#0091DA"/>
    <path d="M 234.875 -1.101 C 236.031 -1.11 237.187 -1.12 238.378 -1.129 C 242.182 -1.149 245.982 -1.103 249.785 -1.055 C 252.447 -1.051 255.108 -1.05 257.77 -1.052 C 263.346 -1.05 268.921 -1.013 274.497 -0.954 C 280.902 -0.886 287.305 -0.866 293.71 -0.874 C 299.913 -0.882 306.116 -0.861 312.318 -0.825 C 314.937 -0.812 317.556 -0.804 320.175 -0.804 C 343.62 -0.764 362.779 2.126 380.207 19.148 C 393.721 32.946 400.535 48.846 400.341 68.173 C 400.341 69.335 400.341 70.497 400.342 71.695 C 400.34 75.498 400.317 79.302 400.293 83.105 C 400.287 85.758 400.283 88.41 400.28 91.062 C 400.271 97.306 400.246 103.549 400.216 109.793 C 400.182 116.908 400.166 124.023 400.151 131.138 C 400.12 145.759 400.066 160.379 400 175 C 394.72 175 389.44 175 384 175 C 383.992 173.691 383.984 172.381 383.976 171.032 C 383.898 158.645 383.81 146.259 383.712 133.872 C 383.663 127.505 383.616 121.138 383.578 114.771 C 383.541 108.618 383.495 102.465 383.442 96.312 C 383.424 93.973 383.408 91.635 383.397 89.296 C 383.6 60.066 383.6 60.066 370.355 34.742 C 369 33 369 33 369 31 C 368.443 30.74 367.886 30.479 367.313 30.211 C 364.729 28.858 362.41 27.267 360 25.625 C 347.22 17.457 334.232 16.87 319.482 16.795 C 318.271 16.785 317.06 16.775 315.813 16.765 C 312.524 16.739 309.235 16.717 305.947 16.697 C 302.498 16.675 299.05 16.647 295.601 16.621 C 289.085 16.571 282.569 16.526 276.052 16.483 C 268.628 16.433 261.203 16.378 253.779 16.323 C 238.519 16.209 223.26 16.103 208 16 C 209.966 13.631 211.97 11.314 214 9 C 214.655 8.198 215.31 7.396 215.985 6.57 C 221.872 -0.114 226.128 -1.301 234.875 -1.101 Z" fill="#78BE20"/>
    <path d="M 311 204 C 340.37 204 369.74 204 400 204 C 400 233.37 400 262.74 400 293 C 370.63 293 341.26 293 311 293 C 310.355 287.193 309.853 281.745 309.871 275.958 C 309.869 275.21 309.867 274.462 309.865 273.692 C 309.861 271.256 309.864 268.819 309.867 266.383 C 309.867 264.677 309.866 262.97 309.864 261.264 C 309.863 257.705 309.865 254.147 309.87 250.588 C 309.875 246.025 309.872 241.462 309.866 236.899 C 309.862 233.383 309.864 229.868 309.866 226.352 C 309.867 224.669 309.866 222.986 309.864 221.302 C 309.861 218.957 309.865 216.611 309.871 214.266 C 309.869 213.571 309.867 212.876 309.864 212.16 C 309.878 209.154 310.041 206.877 311 204 Z M 327 221 C 327 239.15 327 257.3 327 276 C 345.48 276 363.96 276 383 276 C 383 257.85 383 239.7 383 221 C 364.52 221 346.04 221 327 221 Z" fill="#1D428A"/>
    <path d="M 202 310 C 231.37 310 260.74 310 291 310 C 291 339.37 291 368.74 291 399 C 261.63 399 232.26 399 202 399 C 202 369.63 202 340.26 202 310 Z M 219 327 C 219 345.48 219 363.96 219 383 C 237.15 383 255.3 383 274 383 C 274 364.52 274 346.04 274 327 C 255.85 327 237.7 327 219 327 Z" fill="#1D428A"/>
    <path d="M 276.309 211.715 C 286.744 220.32 292.121 231.109 293.813 244.375 C 294.711 257.645 290.754 269.589 282.203 279.676 C 272.43 289.986 260.841 294.867 246.75 295.375 C 234.926 295.168 223.039 290.912 214.313 282.813 C 203.964 271.768 200.567 258.993 200.785 244.273 C 201.195 232.618 206.803 222.556 214.645 214.141 C 232.052 198.321 257.728 197.913 276.309 211.715 Z M 224 230 C 218.026 238.085 217.22 244.998 218 255 C 220.325 264.156 224.882 269.724 232.785 274.707 C 239.835 278.823 247.863 279.282 255.754 277.313 C 264.319 274.174 269.877 269.428 273.996 261.285 C 277.491 253.331 277.86 246.201 274.906 237.941 C 270.944 229.125 265.638 223.558 256.563 220.063 C 243.957 216.561 232.72 220.388 224 230 Z" fill="#1D428A"/>
    <path d="M 382.188 317.688 C 393.378 327.192 398.794 338.393 400 353 C 400.14 365.125 396.441 375.477 389 385 C 388.522 385.616 388.044 386.232 387.551 386.867 C 381.528 393.694 370.796 399.448 361.625 400.193 C 345.631 400.684 333.893 400.027 321.254 389.234 C 311.603 379.667 306.809 368.402 306.688 354.938 C 306.676 342.686 310.242 333.515 318 324 C 318.5 323.363 319 322.726 319.516 322.07 C 335.177 304.274 364.063 303.895 382.188 317.688 Z M 328.547 337.879 C 323.427 344.899 323.073 352.502 324 361 C 326.693 371.191 332.058 376.78 341 382 C 347.305 385.082 354.978 384.965 361.719 383.348 C 371.105 379.973 376.871 374.381 381.09 365.43 C 384.2 357.128 383.466 349.049 380 341 C 375.422 333.358 369.814 328.838 361.563 325.688 C 348.155 323.1 337.278 327.351 328.547 337.879 Z" fill="#1D428A"/>
  </g>
</svg>