<?xml version="1.0" encoding="UTF-8" standalone="no"?>
<svg
   version="1.1"
   width="128px"
   height="128px"
   viewBox="0 0 128 128"
   id="svg8"
   sodipodi:docname="os_vmware.svg"
   inkscape:version="1.4.2 (unknown)"
   xmlns:inkscape="http://www.inkscape.org/namespaces/inkscape"
   xmlns:sodipodi="http://sodipodi.sourceforge.net/DTD/sodipodi-0.dtd"
   xmlns="http://www.w3.org/2000/svg"
   xmlns:svg="http://www.w3.org/2000/svg">
  <defs
     id="defs8" />
  <sodipodi:namedview
     id="namedview8"
     pagecolor="#ffffff"
     bordercolor="#000000"
     borderopacity="0.25"
     inkscape:showpageshadow="2"
     inkscape:pageopacity="0.0"
     inkscape:pagecheckerboard="true"
     inkscape:deskcolor="#d1d1d1"
     inkscape:zoom="8.1796875"
     inkscape:cx="64"
     inkscape:cy="63.938873"
     inkscape:window-width="1719"
     inkscape:window-height="1404"
     inkscape:window-x="0"
     inkscape:window-y="0"
     inkscape:window-maximized="0"
     inkscape:current-layer="svg8" />
  <rect
     style="fill:#ffffff;stroke-width:5.13396"
     id="rect8"
     width="96"
     height="96"
     x="16"
     y="16"
     rx="18.240419" />
  <g
     transform="matrix(0.2119783,0,0,0.2119783,21.635542,21.667095)"
     id="g8">
    <path
       d="m 69.458,-0.341 c 1.299,0 2.597,0 3.936,-0.001 3.526,-0.001 7.052,0.017 10.578,0.038 3.698,0.019 7.396,0.02 11.094,0.024 6.988,0.009 13.975,0.034 20.962,0.064 7.961,0.034 15.923,0.05 23.884,0.065 16.363,0.031 32.725,0.084 49.088,0.151 -0.394,0.449 -0.787,0.898 -1.193,1.36 -2.333,2.685 -4.571,5.283 -6.533,8.256 -2.616,3.523 -5.122,5.907 -9.518,6.882 -7.084,0.844 -14.211,0.63 -21.33,0.529 -2.33,10e-4 -4.661,0.006 -6.991,0.015 C 137.31,17.055 131.186,17.016 125.06,16.965 116.455,16.902 107.849,16.908 99.243,16.908 94.667,16.909 90.092,16.889 85.517,16.852 66.922,16.743 49.581,16.899 34.742,29.645 33,31 33,31 31,31 c -0.26,0.557 -0.521,1.114 -0.789,1.688 -1.353,2.583 -2.944,4.902 -4.586,7.312 -7.884,12.335 -8.781,24.869 -8.759,39.131 -0.002,1.077 -0.004,2.153 -0.007,3.263 -0.006,3.584 -0.005,7.169 -0.004,10.753 -0.003,2.58 -0.007,5.16 -0.01,7.74 -0.009,6.266 -0.011,12.533 -0.012,18.799 -10e-4,5.098 -0.003,10.196 -0.006,15.294 -0.009,14.479 -0.013,28.958 -0.012,43.437 0,1.169 0,1.169 0,2.361 0,0.781 0,1.561 0,2.365 0,12.638 -0.009,25.276 -0.023,37.915 -0.015,13.002 -0.022,26.004 -0.021,39.007 0,7.289 -0.002,14.579 -0.013,21.869 -0.01,6.858 -0.01,13.717 -0.003,20.575 0.002,2.51 -10e-4,5.02 -0.007,7.53 -0.439,29.575 -0.439,29.575 12.897,55.219 C 31,367 31,367 31,369 c 0.835,0.391 0.835,0.391 1.688,0.789 2.583,1.353 4.902,2.944 7.312,4.586 12.215,7.807 24.649,8.744 38.774,8.83 1.026,0.01 2.051,0.02 3.108,0.03 3.354,0.032 6.709,0.057 10.063,0.081 2.34,0.021 4.68,0.042 7.02,0.063 6.132,0.055 12.264,0.105 18.396,0.153 6.267,0.051 12.535,0.106 18.803,0.161 12.279,0.108 24.557,0.209 36.836,0.307 0,5.28 0,10.56 0,16 -14.978,0.116 -29.957,0.205 -44.936,0.259 -6.956,0.026 -13.913,0.061 -20.869,0.118 -6.724,0.056 -13.448,0.084 -20.172,0.097 -2.554,0.01 -5.109,0.028 -7.663,0.055 -23.337,0.238 -42.226,-2.74 -59.567,-19.677 C 6.28,367.055 -0.49,351.165 -0.394,331.851 c -0.006,-1.174 -0.013,-2.348 -0.019,-3.558 -0.014,-3.228 -0.014,-6.456 -0.008,-9.684 0.002,-3.493 -0.012,-6.987 -0.025,-10.481 -0.021,-6.833 -0.025,-13.666 -0.023,-20.499 10e-4,-5.559 -0.003,-11.119 -0.01,-16.678 -0.002,-1.606 -0.005,-3.211 -0.007,-4.817 -0.001,-0.799 -0.002,-1.598 -0.003,-2.422 -0.019,-15.096 -0.018,-30.192 -0.011,-45.288 0.006,-13.782 -0.015,-27.563 -0.048,-41.345 -0.034,-14.18 -0.049,-28.36 -0.044,-42.539 0.002,-7.95 -0.003,-15.899 -0.028,-23.848 -0.021,-6.769 -0.025,-13.538 -0.006,-20.308 0.009,-3.447 0.01,-6.893 -0.01,-10.341 C -0.752,56.458 2.01,37.34 19.148,19.793 33.454,5.782 49.532,-0.519 69.458,-0.341 Z"
       fill="#00c1d5"
       id="path1" />
    <path
       d="m 148.039,111.612 c 0.768,-0.005 1.536,-0.01 2.328,-0.016 2.552,-0.014 5.104,-0.007 7.656,0 1.839,-0.006 3.678,-0.013 5.517,-0.021 4.979,-0.018 9.958,-0.017 14.937,-0.011 4.163,0.003 8.325,-0.003 12.488,-0.009 9.822,-0.014 19.644,-0.012 29.466,-0.001 10.122,0.011 20.243,-0.003 30.364,-0.029 8.702,-0.023 17.404,-0.029 26.105,-0.023 5.192,0.003 10.384,0.001 15.576,-0.017 4.883,-0.015 9.766,-0.011 14.649,0.008 1.788,0.003 3.575,0 5.363,-0.01 17.218,-0.093 17.218,-0.093 24.512,4.517 1.305,0.743 1.305,0.743 2.637,1.5 6.867,5.023 11.168,11.797 12.925,20.184 0.501,3.796 0.563,7.52 0.536,11.339 -0.002,1.12 -0.002,1.12 -0.005,2.262 -0.005,2.363 -0.018,4.727 -0.03,7.09 -0.006,1.611 -0.01,3.221 -0.014,4.832 -0.01,3.931 -0.03,7.862 -0.049,11.793 -5.61,0 -11.22,0 -17,0 -0.056,-3.451 -0.056,-3.451 -0.113,-6.973 -0.047,-2.247 -0.098,-4.494 -0.149,-6.742 -0.034,-1.552 -0.062,-3.105 -0.084,-4.658 -0.034,-2.242 -0.087,-4.483 -0.142,-6.725 -0.01,-1.028 -0.01,-1.028 -0.02,-2.078 -0.15,-5.013 -1.226,-8.434 -3.492,-12.824 -4.759,-4.411 -7.81,-5.149 -14.11,-5.147 -1.111,-0.006 -1.111,-0.006 -2.244,-0.011 -2.495,-0.011 -4.99,-0.015 -7.485,-0.019 -1.784,-0.006 -3.567,-0.013 -5.351,-0.02 -4.855,-0.017 -9.711,-0.028 -14.566,-0.036 -3.033,-0.005 -6.065,-0.011 -9.097,-0.018 -9.484,-0.019 -18.968,-0.033 -28.452,-0.041 -10.954,-0.01 -21.908,-0.036 -32.862,-0.077 -8.462,-0.03 -16.924,-0.045 -25.386,-0.048 -5.056,-0.002 -10.112,-0.011 -15.168,-0.036 -4.757,-0.024 -9.514,-0.028 -14.272,-0.018 -1.745,0.001 -3.491,-0.006 -5.236,-0.019 -2.385,-0.018 -4.769,-0.011 -7.154,0.002 -0.689,-0.011 -1.378,-0.022 -2.088,-0.033 -4.949,0.066 -7.766,1.354 -11.529,4.521 -3.253,3.992 -3.43,7.691 -3.388,12.66 -0.005,0.764 -0.01,1.527 -0.016,2.314 -0.014,2.555 -0.007,5.11 0,7.664 -0.006,1.834 -0.013,3.667 -0.021,5.5 -0.018,4.978 -0.017,9.955 -0.011,14.932 0.003,4.155 -0.003,8.31 -0.009,12.466 -0.014,9.802 -0.012,19.604 -0.001,29.407 0.011,10.112 -0.003,20.225 -0.029,30.338 -0.023,8.683 -0.029,17.366 -0.023,26.049 0.003,5.185 10e-4,10.371 -0.017,15.557 -0.015,4.876 -0.011,9.752 0.008,14.629 0.003,1.789 0,3.578 -0.01,5.367 -0.013,2.444 -0.002,4.886 0.016,7.33 -0.01,0.707 -0.019,1.413 -0.029,2.141 0.074,4.985 1.433,7.793 4.53,11.646 3.921,3.129 7.106,3.407 12.051,3.512 0.659,0.018 1.317,0.036 1.996,0.054 2.089,0.054 4.177,0.088 6.266,0.122 1.422,0.033 2.845,0.067 4.267,0.103 3.473,0.087 6.946,0.147 10.42,0.209 0,5.61 0,11.22 0,17 -4.232,0.069 -8.463,0.129 -12.695,0.165 -1.436,0.015 -2.871,0.035 -4.306,0.061 -12.778,0.228 -22.221,-0.528 -31.796,-9.742 -5.97,-6.732 -8.352,-13.207 -8.35,-22.111 -0.004,-0.785 -0.008,-1.569 -0.011,-2.377 -0.011,-2.637 -0.015,-5.274 -0.019,-7.911 -0.006,-1.887 -0.013,-3.774 -0.02,-5.661 -0.021,-6.207 -0.031,-12.413 -0.041,-18.619 -0.004,-2.137 -0.008,-4.274 -0.013,-6.41 -0.019,-10.04 -0.033,-20.08 -0.041,-30.119 -0.01,-11.586 -0.036,-23.172 -0.077,-34.759 -0.03,-8.956 -0.045,-17.912 -0.048,-26.869 -0.002,-5.348 -0.011,-10.697 -0.036,-16.045 -0.024,-5.035 -0.028,-10.07 -0.018,-15.104 0.001,-1.845 -0.006,-3.689 -0.019,-5.533 -0.09,-12.7 0.807,-21.675 9.771,-31.247 6.651,-6.651 13.422,-9.187 22.758,-9.107 z"
       fill="#0091da"
       id="path2" />
    <path
       d="m 83.539,45.866 c 0.726,-0.002 1.453,-0.004 2.201,-0.007 2.417,-0.006 4.835,-0.005 7.252,-0.004 1.74,-0.003 3.48,-0.007 5.22,-0.01 4.715,-0.009 9.43,-0.012 14.145,-0.012 2.948,-10e-4 5.897,-0.003 8.845,-0.006 10.294,-0.009 20.588,-0.013 30.881,-0.012 9.584,0 19.167,-0.01 28.75,-0.026 8.239,-0.013 16.478,-0.018 24.717,-0.018 4.916,0 9.832,-0.002 14.748,-0.013 4.624,-0.01 9.248,-0.01 13.873,-0.003 1.692,0.002 3.385,-0.001 5.078,-0.007 13.485,-0.045 24.925,0.522 35.575,9.85 7.862,8.376 8.746,17.997 8.426,29.027 -0.018,1.195 -0.036,2.39 -0.055,3.621 -0.046,2.919 -0.112,5.836 -0.195,8.754 -2.646,0.027 -5.292,0.047 -7.937,0.063 -0.755,0.008 -1.51,0.016 -2.288,0.025 -1.925,0.009 -3.85,-0.036 -5.775,-0.088 -1.656,-1.656 -1.148,-3.642 -1.176,-5.918 -0.024,-1.007 -0.047,-2.015 -0.072,-3.053 -0.043,-2.125 -0.074,-4.25 -0.094,-6.375 C 265.496,75.721 265.353,71.453 261,67 c -5.071,-2.6 -8.804,-3.378 -14.583,-3.394 -1.097,-0.01 -1.097,-0.01 -2.217,-0.019 -2.433,-0.016 -4.866,-0.012 -7.299,-0.007 -1.752,-0.007 -3.504,-0.016 -5.255,-0.026 -4.746,-0.022 -9.492,-0.025 -14.238,-0.023 -3.966,0 -7.932,-0.008 -11.898,-0.017 -9.359,-0.019 -18.717,-0.022 -28.076,-0.015 -9.646,0.007 -19.291,-0.016 -28.937,-0.053 -8.291,-0.031 -16.581,-0.042 -24.872,-0.038 -4.948,0.002 -9.895,-0.004 -14.843,-0.028 -4.653,-0.023 -9.306,-0.021 -13.959,0 -1.705,0.003 -3.409,-0.002 -5.113,-0.016 -11.307,-0.314 -11.307,-0.314 -21.37,4.271 -4.794,4.885 -4.465,10.28 -4.474,16.759 -0.002,0.735 -0.004,1.471 -0.007,2.228 -0.006,2.458 -0.005,4.916 -0.004,7.374 -0.003,1.764 -0.007,3.529 -0.01,5.293 -0.009,4.789 -0.012,9.578 -0.012,14.368 -10e-4,3.998 -0.005,7.997 -0.008,11.995 -0.009,9.434 -0.011,18.867 -0.01,28.3 0,9.731 -0.01,19.462 -0.026,29.193 -0.013,8.356 -0.018,16.712 -0.018,25.068 0,4.99 -0.002,9.98 -0.013,14.97 -0.01,4.693 -0.01,9.385 -0.003,14.078 0.002,1.721 -0.001,3.442 -0.007,5.163 -0.008,2.352 -0.003,4.703 0.005,7.055 -10e-4,1.973 -10e-4,1.973 -0.002,3.986 0.421,5.972 2.06,10.226 6.249,14.535 3.779,1.872 6.985,2.29 11.176,2.414 1.735,0.058 1.735,0.058 3.506,0.117 1.198,0.031 2.396,0.062 3.631,0.094 1.826,0.058 1.826,0.058 3.689,0.117 2.999,0.094 5.999,0.177 8.998,0.258 0,5.61 0,11.22 0,17 -3.917,0.082 -7.832,0.141 -11.75,0.188 -1.092,0.025 -2.184,0.05 -3.309,0.076 C 74.645,288.364 64.428,287.015 56,279 47.978,270.795 45.845,261.598 45.86,250.405 c -0.003,-0.745 -0.006,-1.489 -0.009,-2.256 -0.009,-2.485 -0.011,-4.97 -0.012,-7.454 -0.005,-1.786 -0.01,-3.572 -0.015,-5.358 -0.013,-4.846 -0.02,-9.691 -0.024,-14.536 -0.003,-3.031 -0.007,-6.061 -0.012,-9.091 -0.013,-9.491 -0.023,-18.982 -0.027,-28.472 C 45.757,172.299 45.739,161.361 45.71,150.423 45.688,141.957 45.678,133.49 45.677,125.024 45.676,119.973 45.67,114.922 45.652,109.87 45.636,105.116 45.634,100.361 45.642,95.606 45.643,93.867 45.639,92.129 45.629,90.39 45.561,77.722 45.634,65.588 55,56 63.98,47.986 71.487,45.882 83.539,45.866 Z"
       fill="#0091da"
       id="path3" />
    <path
       d="m 234.875,-1.101 c 1.156,-0.009 2.312,-0.019 3.503,-0.028 3.804,-0.02 7.604,0.026 11.407,0.074 2.662,0.004 5.323,0.005 7.985,0.003 5.576,0.002 11.151,0.039 16.727,0.098 6.405,0.068 12.808,0.088 19.213,0.08 6.203,-0.008 12.406,0.013 18.608,0.049 2.619,0.013 5.238,0.021 7.857,0.021 23.445,0.04 42.604,2.93 60.032,19.952 13.514,13.798 20.328,29.698 20.134,49.025 0,1.162 0,2.324 10e-4,3.522 -0.002,3.803 -0.025,7.607 -0.049,11.41 -0.006,2.653 -0.01,5.305 -0.013,7.957 -0.009,6.244 -0.034,12.487 -0.064,18.731 -0.034,7.115 -0.05,14.23 -0.065,21.345 -0.031,14.621 -0.085,29.241 -0.151,43.862 -5.28,0 -10.56,0 -16,0 -0.008,-1.309 -0.016,-2.619 -0.024,-3.968 -0.078,-12.387 -0.166,-24.773 -0.264,-37.16 -0.049,-6.367 -0.096,-12.734 -0.134,-19.101 -0.037,-6.153 -0.083,-12.306 -0.136,-18.459 -0.018,-2.339 -0.034,-4.677 -0.045,-7.016 C 383.6,60.066 383.6,60.066 370.355,34.742 369,33 369,33 369,31 c -0.557,-0.26 -1.114,-0.521 -1.687,-0.789 -2.584,-1.353 -4.903,-2.944 -7.313,-4.586 -12.78,-8.168 -25.768,-8.755 -40.518,-8.83 -1.211,-0.01 -2.422,-0.02 -3.669,-0.03 -3.289,-0.026 -6.578,-0.048 -9.866,-0.068 -3.449,-0.022 -6.897,-0.05 -10.346,-0.076 -6.516,-0.05 -13.032,-0.095 -19.549,-0.138 -7.424,-0.05 -14.849,-0.105 -22.273,-0.16 C 238.519,16.209 223.26,16.103 208,16 c 1.966,-2.369 3.97,-4.686 6,-7 0.655,-0.802 1.31,-1.604 1.985,-2.43 5.887,-6.684 10.143,-7.871 18.89,-7.671 z"
       fill="#78be20"
       id="path4" />
    <path
       d="m 311,204 c 29.37,0 58.74,0 89,0 0,29.37 0,58.74 0,89 -29.37,0 -58.74,0 -89,0 -0.645,-5.807 -1.147,-11.255 -1.129,-17.042 -0.002,-0.748 -0.004,-1.496 -0.006,-2.266 -0.004,-2.436 -0.001,-4.873 0.002,-7.309 0,-1.706 -0.001,-3.413 -0.003,-5.119 -10e-4,-3.559 0.001,-7.117 0.006,-10.676 0.005,-4.563 0.002,-9.126 -0.004,-13.689 -0.004,-3.516 -0.002,-7.031 0,-10.547 0.001,-1.683 0,-3.366 -0.002,-5.05 -0.003,-2.345 0.001,-4.691 0.007,-7.036 -0.002,-0.695 -0.004,-1.39 -0.007,-2.106 0.014,-3.006 0.177,-5.283 1.136,-8.16 z m 16,17 c 0,18.15 0,36.3 0,55 18.48,0 36.96,0 56,0 0,-18.15 0,-36.3 0,-55 -18.48,0 -36.96,0 -56,0 z"
       fill="#1d428a"
       id="path5" />
    <path
       d="m 202,310 c 29.37,0 58.74,0 89,0 0,29.37 0,58.74 0,89 -29.37,0 -58.74,0 -89,0 0,-29.37 0,-58.74 0,-89 z m 17,17 c 0,18.48 0,36.96 0,56 18.15,0 36.3,0 55,0 0,-18.48 0,-36.96 0,-56 -18.15,0 -36.3,0 -55,0 z"
       fill="#1d428a"
       id="path6" />
    <path
       d="m 276.309,211.715 c 10.435,8.605 15.812,19.394 17.504,32.66 0.898,13.27 -3.059,25.214 -11.61,35.301 -9.773,10.31 -21.362,15.191 -35.453,15.699 -11.824,-0.207 -23.711,-4.463 -32.437,-12.562 -10.349,-11.045 -13.746,-23.82 -13.528,-38.54 0.41,-11.655 6.018,-21.717 13.86,-30.132 17.407,-15.82 43.083,-16.228 61.664,-2.426 z M 224,230 c -5.974,8.085 -6.78,14.998 -6,25 2.325,9.156 6.882,14.724 14.785,19.707 7.05,4.116 15.078,4.575 22.969,2.606 8.565,-3.139 14.123,-7.885 18.242,-16.028 3.495,-7.954 3.864,-15.084 0.91,-23.344 -3.962,-8.816 -9.268,-14.383 -18.343,-17.878 C 243.957,216.561 232.72,220.388 224,230 Z"
       fill="#1d428a"
       id="path7" />
    <path
       d="m 382.188,317.688 c 11.19,9.504 16.606,20.705 17.812,35.312 0.14,12.125 -3.559,22.477 -11,32 -0.478,0.616 -0.956,1.232 -1.449,1.867 -6.023,6.827 -16.755,12.581 -25.926,13.326 -15.994,0.491 -27.732,-0.166 -40.371,-10.959 -9.651,-9.567 -14.445,-20.832 -14.566,-34.296 -0.012,-12.252 3.554,-21.423 11.312,-30.938 0.5,-0.637 1,-1.274 1.516,-1.93 15.661,-17.796 44.547,-18.175 62.672,-4.382 z m -53.641,20.191 c -5.12,7.02 -5.474,14.623 -4.547,23.121 2.693,10.191 8.058,15.78 17,21 6.305,3.082 13.978,2.965 20.719,1.348 9.386,-3.375 15.152,-8.967 19.371,-17.918 3.11,-8.302 2.376,-16.381 -1.09,-24.43 -4.578,-7.642 -10.186,-12.162 -18.437,-15.312 -13.408,-2.588 -24.285,1.663 -33.016,12.191 z"
       fill="#1d428a"
       id="path8" />
  </g>
</svg>
